<mxfile host="Electron" modified="2023-04-18T06:45:44.141Z" agent="Mozilla/5.0 (Windows NT 10.0; Win64; x64) AppleWebKit/537.36 (KHTML, like Gecko) draw.io/21.1.2 Chrome/106.0.5249.199 Electron/21.4.3 Safari/537.36" etag="A_zk1-w1BoE7qjWo9ZrD" version="21.1.2" type="device">
  <diagram name="Page-1" id="Cj-V_x_v1ogrPbI0qBQC">
    <mxGraphModel dx="1170" dy="672" grid="1" gridSize="3.937" guides="1" tooltips="1" connect="1" arrows="1" fold="1" page="1" pageScale="1" pageWidth="1169" pageHeight="827" math="0" shadow="0">
      <root>
        <mxCell id="0" />
        <mxCell id="1" parent="0" />
        <mxCell id="VJsUaU98l2VECBG8ONmM-10" style="edgeStyle=orthogonalEdgeStyle;rounded=0;orthogonalLoop=1;jettySize=auto;html=1;exitX=0;exitY=0.5;exitDx=0;exitDy=0;entryX=0.5;entryY=0;entryDx=0;entryDy=0;strokeWidth=2;fillColor=#f8cecc;strokeColor=#b85450;" edge="1" parent="1" source="ucsHSLPVd7NUe8TGbWq1-3" target="VJsUaU98l2VECBG8ONmM-3">
          <mxGeometry relative="1" as="geometry">
            <Array as="points">
              <mxPoint x="380" y="164" />
              <mxPoint x="380" y="229" />
            </Array>
          </mxGeometry>
        </mxCell>
        <mxCell id="ucsHSLPVd7NUe8TGbWq1-3" value="Ввод от клавиатуры или пульта" style="shape=parallelogram;perimeter=parallelogramPerimeter;whiteSpace=wrap;html=1;fixedSize=1;fontSize=15;fontStyle=1;strokeWidth=2;fillColor=#dae8fc;strokeColor=#6c8ebf;" parent="1" vertex="1">
          <mxGeometry x="437" y="133.86" width="295.16" height="60" as="geometry" />
        </mxCell>
        <mxCell id="VJsUaU98l2VECBG8ONmM-25" style="edgeStyle=orthogonalEdgeStyle;rounded=0;orthogonalLoop=1;jettySize=auto;html=1;exitX=0;exitY=0.5;exitDx=0;exitDy=0;strokeWidth=2;fillColor=#f8cecc;strokeColor=#b85450;" edge="1" parent="1" source="VJsUaU98l2VECBG8ONmM-2">
          <mxGeometry relative="1" as="geometry">
            <mxPoint x="606.298" y="512.1111111111111" as="targetPoint" />
          </mxGeometry>
        </mxCell>
        <mxCell id="VJsUaU98l2VECBG8ONmM-29" style="edgeStyle=orthogonalEdgeStyle;rounded=0;orthogonalLoop=1;jettySize=auto;html=1;exitX=0.5;exitY=1;exitDx=0;exitDy=0;entryX=0.5;entryY=0;entryDx=0;entryDy=0;strokeWidth=2;fillColor=#f8cecc;strokeColor=#b85450;" edge="1" parent="1" source="VJsUaU98l2VECBG8ONmM-2" target="VJsUaU98l2VECBG8ONmM-22">
          <mxGeometry relative="1" as="geometry" />
        </mxCell>
        <mxCell id="VJsUaU98l2VECBG8ONmM-2" value="&lt;p style=&quot;line-height: 0%;&quot;&gt;Долгое нажатие&lt;/p&gt;&lt;p style=&quot;line-height: 0%;&quot;&gt;В&lt;sub&gt;1&lt;/sub&gt;?&lt;/p&gt;" style="rhombus;whiteSpace=wrap;html=1;fontSize=15;fontStyle=1;spacingTop=15;strokeWidth=2;fillColor=#ffe6cc;strokeColor=#d79b00;" vertex="1" parent="1">
          <mxGeometry x="700.74" y="480.00999999999993" width="177.17" height="64.25" as="geometry" />
        </mxCell>
        <mxCell id="VJsUaU98l2VECBG8ONmM-11" style="edgeStyle=orthogonalEdgeStyle;rounded=0;orthogonalLoop=1;jettySize=auto;html=1;exitX=0.5;exitY=1;exitDx=0;exitDy=0;entryX=0.5;entryY=0;entryDx=0;entryDy=0;strokeWidth=2;fillColor=#f8cecc;strokeColor=#b85450;" edge="1" parent="1" source="VJsUaU98l2VECBG8ONmM-3" target="VJsUaU98l2VECBG8ONmM-6">
          <mxGeometry relative="1" as="geometry" />
        </mxCell>
        <mxCell id="VJsUaU98l2VECBG8ONmM-12" style="edgeStyle=orthogonalEdgeStyle;rounded=0;orthogonalLoop=1;jettySize=auto;html=1;exitX=1;exitY=0.5;exitDx=0;exitDy=0;entryX=0;entryY=0.5;entryDx=0;entryDy=0;strokeWidth=2;fillColor=#f8cecc;strokeColor=#b85450;" edge="1" parent="1" source="VJsUaU98l2VECBG8ONmM-3" target="VJsUaU98l2VECBG8ONmM-4">
          <mxGeometry relative="1" as="geometry" />
        </mxCell>
        <mxCell id="VJsUaU98l2VECBG8ONmM-3" value="&lt;p style=&quot;line-height: 100%;&quot;&gt;Нажатие А?&lt;/p&gt;" style="rhombus;whiteSpace=wrap;html=1;fontSize=15;fontStyle=1;spacingTop=0;strokeWidth=2;fillColor=#ffe6cc;strokeColor=#d79b00;" vertex="1" parent="1">
          <mxGeometry x="291.2969999999999" y="263.627" width="177.17" height="64.25" as="geometry" />
        </mxCell>
        <mxCell id="VJsUaU98l2VECBG8ONmM-13" style="edgeStyle=orthogonalEdgeStyle;rounded=0;orthogonalLoop=1;jettySize=auto;html=1;exitX=0.5;exitY=0;exitDx=0;exitDy=0;entryX=1;entryY=0.5;entryDx=0;entryDy=0;strokeWidth=2;fillColor=#f8cecc;strokeColor=#b85450;" edge="1" parent="1" source="VJsUaU98l2VECBG8ONmM-4" target="ucsHSLPVd7NUe8TGbWq1-3">
          <mxGeometry relative="1" as="geometry">
            <Array as="points">
              <mxPoint x="789" y="229" />
              <mxPoint x="789" y="229" />
              <mxPoint x="789" y="164" />
            </Array>
          </mxGeometry>
        </mxCell>
        <mxCell id="VJsUaU98l2VECBG8ONmM-14" style="edgeStyle=orthogonalEdgeStyle;rounded=0;orthogonalLoop=1;jettySize=auto;html=1;exitX=0.5;exitY=1;exitDx=0;exitDy=0;entryX=0.5;entryY=0;entryDx=0;entryDy=0;strokeWidth=2;fillColor=#f8cecc;strokeColor=#b85450;" edge="1" parent="1" source="VJsUaU98l2VECBG8ONmM-4" target="VJsUaU98l2VECBG8ONmM-7">
          <mxGeometry relative="1" as="geometry" />
        </mxCell>
        <mxCell id="VJsUaU98l2VECBG8ONmM-4" value="&lt;p style=&quot;line-height: 0%;&quot;&gt;Нажатие В?&lt;/p&gt;" style="rhombus;whiteSpace=wrap;html=1;fontSize=15;fontStyle=1;spacingTop=0;strokeWidth=2;fillColor=#ffe6cc;strokeColor=#d79b00;" vertex="1" parent="1">
          <mxGeometry x="700.744" y="263.474" width="177.17" height="64.25" as="geometry" />
        </mxCell>
        <mxCell id="VJsUaU98l2VECBG8ONmM-24" style="edgeStyle=orthogonalEdgeStyle;rounded=0;orthogonalLoop=1;jettySize=auto;html=1;exitX=1;exitY=0.5;exitDx=0;exitDy=0;strokeWidth=2;fillColor=#f8cecc;strokeColor=#b85450;" edge="1" parent="1" source="VJsUaU98l2VECBG8ONmM-5">
          <mxGeometry relative="1" as="geometry">
            <mxPoint x="562.991" y="512.1666666666667" as="targetPoint" />
          </mxGeometry>
        </mxCell>
        <mxCell id="VJsUaU98l2VECBG8ONmM-28" style="edgeStyle=orthogonalEdgeStyle;rounded=0;orthogonalLoop=1;jettySize=auto;html=1;exitX=0.5;exitY=1;exitDx=0;exitDy=0;entryX=0.5;entryY=0;entryDx=0;entryDy=0;strokeWidth=2;fillColor=#f8cecc;strokeColor=#b85450;" edge="1" parent="1" source="VJsUaU98l2VECBG8ONmM-5" target="VJsUaU98l2VECBG8ONmM-21">
          <mxGeometry relative="1" as="geometry" />
        </mxCell>
        <mxCell id="VJsUaU98l2VECBG8ONmM-5" value="&lt;p style=&quot;line-height: 0%;&quot;&gt;Долгое нажатие&lt;/p&gt;&lt;p style=&quot;line-height: 0%;&quot;&gt;В&lt;sub&gt;2&lt;/sub&gt;&lt;span style=&quot;background-color: initial;&quot;&gt;?&lt;/span&gt;&lt;/p&gt;" style="rhombus;whiteSpace=wrap;html=1;fontSize=15;fontStyle=1;spacingTop=15;strokeWidth=2;fillColor=#ffe6cc;strokeColor=#d79b00;" vertex="1" parent="1">
          <mxGeometry x="291.3009999999998" y="480.161" width="177.17" height="64.25" as="geometry" />
        </mxCell>
        <mxCell id="VJsUaU98l2VECBG8ONmM-15" style="edgeStyle=orthogonalEdgeStyle;rounded=0;orthogonalLoop=1;jettySize=auto;html=1;exitX=0.5;exitY=1;exitDx=0;exitDy=0;entryX=0.5;entryY=0;entryDx=0;entryDy=0;strokeWidth=2;fillColor=#f8cecc;strokeColor=#b85450;" edge="1" parent="1" source="VJsUaU98l2VECBG8ONmM-6" target="VJsUaU98l2VECBG8ONmM-5">
          <mxGeometry relative="1" as="geometry" />
        </mxCell>
        <mxCell id="VJsUaU98l2VECBG8ONmM-6" value="STATE = AUTO_MODE_STARE" style="rounded=0;whiteSpace=wrap;html=1;fontSize=15;fontStyle=1;strokeWidth=2;fillColor=#d5e8d4;strokeColor=#82b366;" vertex="1" parent="1">
          <mxGeometry x="247.99999999999997" y="373.87" width="263.77" height="60" as="geometry" />
        </mxCell>
        <mxCell id="VJsUaU98l2VECBG8ONmM-16" style="edgeStyle=orthogonalEdgeStyle;rounded=0;orthogonalLoop=1;jettySize=auto;html=1;exitX=0.5;exitY=1;exitDx=0;exitDy=0;entryX=0.5;entryY=0;entryDx=0;entryDy=0;strokeWidth=2;fillColor=#f8cecc;strokeColor=#b85450;" edge="1" parent="1" source="VJsUaU98l2VECBG8ONmM-7" target="VJsUaU98l2VECBG8ONmM-2">
          <mxGeometry relative="1" as="geometry" />
        </mxCell>
        <mxCell id="VJsUaU98l2VECBG8ONmM-7" value="STATE = AUTO_MODE_STARE" style="rounded=0;whiteSpace=wrap;html=1;fontSize=15;fontStyle=1;strokeWidth=2;fillColor=#d5e8d4;strokeColor=#82b366;" vertex="1" parent="1">
          <mxGeometry x="657.4470000000001" y="373.717" width="263.77" height="60" as="geometry" />
        </mxCell>
        <mxCell id="VJsUaU98l2VECBG8ONmM-19" value="" style="endArrow=classic;html=1;rounded=0;entryX=0;entryY=0.5;entryDx=0;entryDy=0;strokeWidth=2;fillColor=#f8cecc;strokeColor=#b85450;" edge="1" parent="1" target="VJsUaU98l2VECBG8ONmM-7">
          <mxGeometry width="50" height="50" relative="1" as="geometry">
            <mxPoint x="563" y="622" as="sourcePoint" />
            <mxPoint x="585" y="421" as="targetPoint" />
            <Array as="points">
              <mxPoint x="563" y="512" />
              <mxPoint x="606" y="404" />
            </Array>
          </mxGeometry>
        </mxCell>
        <mxCell id="VJsUaU98l2VECBG8ONmM-20" value="" style="endArrow=classic;html=1;rounded=0;entryX=1;entryY=0.5;entryDx=0;entryDy=0;strokeWidth=2;fillColor=#f8cecc;strokeColor=#b85450;" edge="1" parent="1" target="VJsUaU98l2VECBG8ONmM-6">
          <mxGeometry width="50" height="50" relative="1" as="geometry">
            <mxPoint x="606" y="622" as="sourcePoint" />
            <mxPoint x="613" y="398" as="targetPoint" />
            <Array as="points">
              <mxPoint x="606" y="512" />
              <mxPoint x="563" y="404" />
            </Array>
          </mxGeometry>
        </mxCell>
        <mxCell id="VJsUaU98l2VECBG8ONmM-26" style="edgeStyle=orthogonalEdgeStyle;rounded=0;orthogonalLoop=1;jettySize=auto;html=1;exitX=1;exitY=0.5;exitDx=0;exitDy=0;strokeWidth=2;fillColor=#f8cecc;strokeColor=#b85450;" edge="1" parent="1" source="VJsUaU98l2VECBG8ONmM-21">
          <mxGeometry relative="1" as="geometry">
            <mxPoint x="562.991" y="618.7777777777777" as="targetPoint" />
          </mxGeometry>
        </mxCell>
        <mxCell id="VJsUaU98l2VECBG8ONmM-30" style="edgeStyle=orthogonalEdgeStyle;rounded=0;orthogonalLoop=1;jettySize=auto;html=1;exitX=0;exitY=0.5;exitDx=0;exitDy=0;entryX=0;entryY=0.5;entryDx=0;entryDy=0;strokeWidth=2;fillColor=#f8cecc;strokeColor=#b85450;" edge="1" parent="1" source="VJsUaU98l2VECBG8ONmM-21" target="VJsUaU98l2VECBG8ONmM-6">
          <mxGeometry relative="1" as="geometry">
            <Array as="points">
              <mxPoint x="228" y="619" />
              <mxPoint x="228" y="404" />
            </Array>
          </mxGeometry>
        </mxCell>
        <mxCell id="VJsUaU98l2VECBG8ONmM-21" value="&lt;p style=&quot;line-height: 100%;&quot;&gt;Нажатие А?&lt;/p&gt;" style="rhombus;whiteSpace=wrap;html=1;fontSize=15;fontStyle=1;spacingTop=0;strokeWidth=2;fillColor=#ffe6cc;strokeColor=#d79b00;" vertex="1" parent="1">
          <mxGeometry x="291.0039999999999" y="586.764" width="177.17" height="64.25" as="geometry" />
        </mxCell>
        <mxCell id="VJsUaU98l2VECBG8ONmM-27" style="edgeStyle=orthogonalEdgeStyle;rounded=0;orthogonalLoop=1;jettySize=auto;html=1;exitX=0;exitY=0.5;exitDx=0;exitDy=0;strokeWidth=2;fillColor=#f8cecc;strokeColor=#b85450;" edge="1" parent="1" source="VJsUaU98l2VECBG8ONmM-22">
          <mxGeometry relative="1" as="geometry">
            <mxPoint x="606.298" y="618.7777777777777" as="targetPoint" />
          </mxGeometry>
        </mxCell>
        <mxCell id="VJsUaU98l2VECBG8ONmM-31" style="edgeStyle=orthogonalEdgeStyle;rounded=0;orthogonalLoop=1;jettySize=auto;html=1;exitX=1;exitY=0.5;exitDx=0;exitDy=0;entryX=1;entryY=0.5;entryDx=0;entryDy=0;strokeWidth=2;fillColor=#f8cecc;strokeColor=#b85450;" edge="1" parent="1" source="VJsUaU98l2VECBG8ONmM-22" target="VJsUaU98l2VECBG8ONmM-7">
          <mxGeometry relative="1" as="geometry" />
        </mxCell>
        <mxCell id="VJsUaU98l2VECBG8ONmM-22" value="&lt;p style=&quot;line-height: 0%;&quot;&gt;Нажатие В?&lt;/p&gt;" style="rhombus;whiteSpace=wrap;html=1;fontSize=15;fontStyle=1;spacingTop=0;strokeWidth=2;fillColor=#ffe6cc;strokeColor=#d79b00;" vertex="1" parent="1">
          <mxGeometry x="700.451" y="586.611" width="177.17" height="64.25" as="geometry" />
        </mxCell>
        <mxCell id="VJsUaU98l2VECBG8ONmM-36" value="Нет" style="text;html=1;strokeColor=none;fillColor=none;align=center;verticalAlign=middle;whiteSpace=wrap;rounded=0;fontSize=15;fontStyle=1;strokeWidth=2;" vertex="1" parent="1">
          <mxGeometry x="472.44" y="275.59" width="27.56" height="14.25" as="geometry" />
        </mxCell>
        <mxCell id="VJsUaU98l2VECBG8ONmM-38" value="Нет" style="text;html=1;strokeColor=none;fillColor=none;align=center;verticalAlign=middle;whiteSpace=wrap;rounded=0;fontSize=15;fontStyle=1;strokeWidth=2;" vertex="1" parent="1">
          <mxGeometry x="385.824" y="547.2439999999999" width="27.56" height="14.25" as="geometry" />
        </mxCell>
        <mxCell id="VJsUaU98l2VECBG8ONmM-39" value="Нет" style="text;html=1;strokeColor=none;fillColor=none;align=center;verticalAlign=middle;whiteSpace=wrap;rounded=0;fontSize=15;fontStyle=1;strokeWidth=2;" vertex="1" parent="1">
          <mxGeometry x="795.271" y="547.241" width="27.56" height="14.25" as="geometry" />
        </mxCell>
        <mxCell id="VJsUaU98l2VECBG8ONmM-40" value="Нет" style="text;html=1;strokeColor=none;fillColor=none;align=center;verticalAlign=middle;whiteSpace=wrap;rounded=0;fontSize=15;fontStyle=1;strokeWidth=2;" vertex="1" parent="1">
          <mxGeometry x="795.267" y="244.09699999999998" width="27.56" height="14.25" as="geometry" />
        </mxCell>
        <mxCell id="VJsUaU98l2VECBG8ONmM-41" value="Да" style="text;html=1;strokeColor=none;fillColor=none;align=center;verticalAlign=middle;whiteSpace=wrap;rounded=0;fontSize=15;fontStyle=1;strokeWidth=2;" vertex="1" parent="1">
          <mxGeometry x="385.83000000000004" y="330.71" width="24.16" height="15.75" as="geometry" />
        </mxCell>
        <mxCell id="VJsUaU98l2VECBG8ONmM-42" value="Да" style="text;html=1;strokeColor=none;fillColor=none;align=center;verticalAlign=middle;whiteSpace=wrap;rounded=0;fontSize=15;fontStyle=1;strokeWidth=2;" vertex="1" parent="1">
          <mxGeometry x="795.267" y="330.707" width="24.16" height="15.75" as="geometry" />
        </mxCell>
        <mxCell id="VJsUaU98l2VECBG8ONmM-43" value="Да" style="text;html=1;strokeColor=none;fillColor=none;align=center;verticalAlign=middle;whiteSpace=wrap;rounded=0;fontSize=15;fontStyle=1;strokeWidth=2;" vertex="1" parent="1">
          <mxGeometry x="472.4440000000001" y="492.124" width="24.16" height="15.75" as="geometry" />
        </mxCell>
        <mxCell id="VJsUaU98l2VECBG8ONmM-44" value="Да" style="text;html=1;strokeColor=none;fillColor=none;align=center;verticalAlign=middle;whiteSpace=wrap;rounded=0;fontSize=15;fontStyle=1;strokeWidth=2;" vertex="1" parent="1">
          <mxGeometry x="472.44100000000003" y="598.4209999999999" width="24.16" height="15.75" as="geometry" />
        </mxCell>
        <mxCell id="VJsUaU98l2VECBG8ONmM-45" value="Да" style="text;html=1;strokeColor=none;fillColor=none;align=center;verticalAlign=middle;whiteSpace=wrap;rounded=0;fontSize=15;fontStyle=1;strokeWidth=2;" vertex="1" parent="1">
          <mxGeometry x="676.288" y="492.12799999999993" width="24.16" height="15.75" as="geometry" />
        </mxCell>
        <mxCell id="VJsUaU98l2VECBG8ONmM-46" value="Да" style="text;html=1;strokeColor=none;fillColor=none;align=center;verticalAlign=middle;whiteSpace=wrap;rounded=0;fontSize=15;fontStyle=1;strokeWidth=2;" vertex="1" parent="1">
          <mxGeometry x="676.585" y="598.425" width="24.16" height="15.75" as="geometry" />
        </mxCell>
        <mxCell id="VJsUaU98l2VECBG8ONmM-47" value="Нет" style="text;html=1;strokeColor=none;fillColor=none;align=center;verticalAlign=middle;whiteSpace=wrap;rounded=0;fontSize=15;fontStyle=1;strokeWidth=2;" vertex="1" parent="1">
          <mxGeometry x="877.91" y="599.9399999999999" width="27.56" height="14.24" as="geometry" />
        </mxCell>
        <mxCell id="VJsUaU98l2VECBG8ONmM-48" value="Нет" style="text;html=1;strokeColor=none;fillColor=none;align=center;verticalAlign=middle;whiteSpace=wrap;rounded=0;fontSize=15;fontStyle=1;strokeWidth=2;" vertex="1" parent="1">
          <mxGeometry x="263.44499999999994" y="599.945" width="27.56" height="14.25" as="geometry" />
        </mxCell>
      </root>
    </mxGraphModel>
  </diagram>
</mxfile>
